# xmcd
#
# Track frame offsets:
#   150
#   14592
#   28773
#   44501
#   63244
#   77032
#   94650
#   109390
#   122302
#   137163
#   139478
#   156146
#   171378
#   186239
#   201622
#   216661
#   233445
#   251969
#   266709
#   282747
#   302788
#
# Disc length: 4375 seconds
#
# Revision: 0
# Processed by: cddbd v1.5.1PL0 Copyright (c) Steve Scherf et al.
# Submitted via: Media_Universe 3.0
#
DISCID=4e111515
DTITLE=Billy Dean - Billy Dean and Love Songs
DYEAR=1900
DGENRE=Country
TTITLE0=Billy The Kid
TTITLE1=Simple Things
TTITLE2=Hammer Down
TTITLE3=Only The Wind
TTITLE4=Small Favors
TTITLE5=I Shoulda Listened
TTITLE6=You Dont Count The Cost
TTITLE7=Gone But Not Forgotten
TTITLE8=If There Hadnt Been You
TTITLE9=Intr:Daddys Will
TTITLE10=Daddys Will
TTITLE11=It's What I Do
TTITLE12=If There Hadnt Been You
TTITLE13=We Just Disagree
TTITLE14=Somewhere In My Broken Heart
TTITLE15=Real Man
TTITLE16=Play Something We Can Dance To
TTITLE17=You Dont Count The Cost
TTITLE18=If I Could Find The Heart
TTITLE19=I Wouldnt Be A Man
TTITLE20=Steamroller
EXTD=
EXTT0=
EXTT1=
EXTT2=
EXTT3=
EXTT4=
EXTT5=
EXTT6=
EXTT7=
EXTT8=
EXTT9=
EXTT10=
EXTT11=
EXTT12=
EXTT13=
EXTT14=
EXTT15=
EXTT16=
EXTT17=
EXTT18=
EXTT19=
EXTT20=
PLAYORDER=
